<svg version="1" id="Layer_1" xmlns="http://www.w3.org/2000/svg" viewBox="0 0 60 56"><style>.st0{fill:#00ae68}.st1{fill:none;stroke:#555;stroke-width:2;stroke-linecap:round;stroke-linejoin:round;stroke-miterlimit:10}</style><path class="st0" d="M17 19h26v26H17z"/><path class="st1" d="M57 55H3l-2-6h58zM45.7 14H53c1.1 0 2 .9 2 2v33M5 49V16c0-1.1.9-2 2-2h7.3M46 28.9V38H36"/><path class="st1" d="M14 21v-4c0-8.8 7.2-16 16-16s16 7.2 16 16v4.1"/><path class="st1" d="M16 20h4v10h-4zM16 28.9c-.3.1-.6.1-1 .1-2.2 0-4-1.8-4-4s1.8-4 4-4c.4 0 .7 0 1 .1"/><path transform="rotate(-180 42 25)" class="st1" d="M40 20h4v10h-4z"/><path transform="rotate(-90 31 38.5)" class="st1" d="M28.5 33.5h5v10h-5z"/><path class="st1" d="M44 21.1c.3-.1.7-.1 1-.1 2.2 0 4 1.8 4 4s-1.8 4-4 4c-.3 0-.7 0-1-.1M29.8 16L25 19v-3h-2V8h14v8zM34 12h-8"/></svg>