<svg version="1" id="Layer_1" xmlns="http://www.w3.org/2000/svg" viewBox="0 0 53 47"><style>.st0{fill:#00ae68}.st1,.st2{fill:none;stroke:#555;stroke-width:2;stroke-miterlimit:10}.st2{stroke-linecap:round;stroke-linejoin:round}</style><path class="st0" d="M12 10h27v27H12z"/><path class="st1" d="M52 42V30M46 43V29c0-1.7 1.3-3 3-3s3 1.3 3 3v14c0 1.7-1.3 3-3 3s-3-1.3-3-3zM46 18V4c0-1.7 1.3-3 3-3s3 1.3 3 3v14c0 1.7-1.3 3-3 3s-3-1.3-3-3z"/><path class="st2" d="M20.5 43c-5.2 0-10.1-2-13.8-5.7C3 33.6 1 28.7 1 23.5 1 12.7 9.7 4 20.5 4H23v14h-2.5c-1.5 0-2.8.6-3.9 1.6-1 1-1.6 2.4-1.6 3.9 0 3 2.5 5.5 5.5 5.5H23v14h-2.5z"/><path class="st1" d="M37 30H22M46 30h-5M37 42H22M46 42h-5M37 5H22M46 5h-5M37 17H22M46 17h-5M39 44c-1.1 0-2-.9-2-2V30c0-1.1.9-2 2-2s2 .9 2 2v12c0 1.1-.9 2-2 2zM39 19c-1.1 0-2-.9-2-2V5c0-1.1.9-2 2-2s2 .9 2 2v12c0 1.1-.9 2-2 2zM10.1 12.1C6.9 14.9 5 19 5 23.5c0 4.8 2.2 9.1 5.6 11.9"/></svg>