<svg version="1" id="Layer_1" xmlns="http://www.w3.org/2000/svg" viewBox="0 0 68 41"><style>.st0{fill:#dedede}</style><path class="st0" d="M58.6 15.2l-6.8-7.8c-.7-1-5-7.4-8.8-7.4H4.9C2.2 0 0 2.2 0 4.9v25.7c0 3 2.4 5.4 5.4 5.4h.7c.5 2.8 3 5 5.9 5s5.4-2.2 5.9-5h29.2c.5 2.8 3 5 5.9 5s5.4-2.2 5.9-5h2.9c1.7 0 3.2-1 3.9-2.5 1.1-2.6 2.3-5.7 2.3-9.5 0-3.2-7-7.4-9.4-8.8zm-1.1 1.7c.1 0 .1.1.2.1H45v-5h8v-.2l4.4 5 .1.1zM12 39c-2.2 0-4-1.8-4-4s1.8-4 4-4 4 1.8 4 4-1.8 4-4 4zm41 0c-2.2 0-4-1.8-4-4s1.8-4 4-4 4 1.8 4 4-1.8 4-4 4zm12-9.3V29h-2v2h1.5c-.2.6-.5 1.2-.7 1.7-.4.8-1.1 1.3-2 1.3h-2.9c-.5-2.8-3-5-5.9-5s-5.4 2.2-5.9 5H17.9c-.5-2.8-3-5-5.9-5s-5.4 2.2-5.9 5h-.7C3.5 34 2 32.5 2 30.6V4.9C2 3.3 3.3 2 4.9 2H43c2.1 0 5.5 4 7.2 6.6l1.2 1.4H45c-.9 0-2 .7-2 1.8v5.4c0 1.1 1.1 1.8 2 1.8h15.9c2.1 1.4 3.9 2.9 4.7 4H63v2h3c-.1 1.7-.5 3.3-1 4.7z"/><path class="st0" d="M39 10H6c-.9 0-2 .7-2 1.8v5.4C4 18.3 5.1 19 6 19h33c.9 0 2-.7 2-1.8v-5.4c0-1.1-1.1-1.8-2-1.8zM6 17v-5h2v5H6zm12 0h-8v-5h8v5zm2 0v-5h9v5h-9zm19 0h-8v-5h8v5zM12 33.4c-.9 0-1.6.7-1.6 1.6s.7 1.6 1.6 1.6 1.6-.7 1.6-1.6-.7-1.6-1.6-1.6zm0 2c-.2 0-.4-.2-.4-.4s.2-.4.4-.4.4.2.4.4-.2.4-.4.4zM53 33.4c-.9 0-1.6.7-1.6 1.6s.7 1.6 1.6 1.6 1.6-.7 1.6-1.6-.7-1.6-1.6-1.6zm0 2c-.2 0-.4-.2-.4-.4s.2-.4.4-.4.4.2.4.4-.2.4-.4.4z"/><path class="st0" d="M14 13h2v2h-2zM25 13h2v2h-2zM44 21h3v2h-3zM30 21h3v2h-3z"/></svg>