<svg version="1" id="Layer_1" xmlns="http://www.w3.org/2000/svg" viewBox="0 0 36 35.9"><style>.st0{fill:#00ae68}.st1{fill:none;stroke:#555;stroke-width:2;stroke-linecap:round;stroke-linejoin:round;stroke-miterlimit:10}</style><path class="st0" d="M6 9.9h4v20H6zM16 9.9h4v20h-4zM26 10.9h4v20h-4z"/><path class="st1" d="M33 34.9H3c-1.1 0-2-.9-2-2v-1c0-1.1.9-2 2-2h30c1.1 0 2 .9 2 2v1c0 1.1-.9 2-2 2zM33 9.9H3c-1.1 0-2-.9-2-2V6.5c0-.9.6-1.7 1.5-1.9l15-3.5c.3-.1.6-.1.9 0l15 3.5c.9.2 1.5 1 1.5 1.9v1.4c.1 1.1-.8 2-1.9 2zM6 9.9v20M10 9.9v20M16 9.9v20M20 9.9v20M26 9.9v20M30 9.9v20"/></svg>