<?xml version="1.0" encoding="utf-8"?>
<!-- Generator: Adobe Illustrator 22.1.0, SVG Export Plug-In . SVG Version: 6.00 Build 0)  -->
<svg version="1.1" id="Capa_1" xmlns="http://www.w3.org/2000/svg" xmlns:xlink="http://www.w3.org/1999/xlink" x="0px" y="0px"
	 viewBox="0 0 11 11" style="enable-background:new 0 0 11 11;" xml:space="preserve">
<style type="text/css">
	.st0{fill:#D80027;}
</style>
<g>
	<g>
		<g>
			<path class="st0" d="M6.5,5.5l3.8-3.8c0.3-0.3,0.3-0.7,0-1c-0.3-0.3-0.7-0.3-1,0L5.5,4.5L1.7,0.7c-0.3-0.3-0.7-0.3-1,0
				s-0.3,0.7,0,1l3.8,3.8L0.7,9.3c-0.3,0.3-0.3,0.7,0,1c0.3,0.3,0.7,0.3,1,0l3.8-3.8l3.8,3.8c0.3,0.3,0.7,0.3,1,0
				c0.3-0.3,0.3-0.7,0-1L6.5,5.5z"/>
		</g>
	</g>
</g>
</svg>
