<svg version="1" id="Layer_1" xmlns="http://www.w3.org/2000/svg" viewBox="0 0 40 50"><style>.st0,.st1,.st2{fill:none;stroke:#555;stroke-width:2;stroke-miterlimit:10}.st1,.st2{stroke-linecap:round}.st2{stroke-dasharray:3.5735,5.3603}</style><circle class="st0" cx="20" cy="11" r="6"/><path class="st0" d="M20 0v5M22.8 16.3l12.2 23 2.6-1.4c1-.5 1.4-1.7.8-2.7L26 11.6M36.4 41.9L35 39.3"/><g><path class="st0" d="M17.2 16.3L5 39.3l-2.7-1.4c-1-.5-1.3-1.7-.8-2.7L14 11.6M3.6 41.9L5 39.3"/></g><g><path class="st1" d="M2.6 44.7l1.8.9"/><path class="st2" d="M9.4 47.5c3.4 1 6.9 1.5 10.6 1.5 4.6 0 9-.8 13.1-2.4"/><path class="st1" d="M35.6 45.6l1.8-.9"/></g></svg>