<svg version="1" id="Layer_1" xmlns="http://www.w3.org/2000/svg" viewBox="0 0 88.5 38.2"><style>.st0{fill:#dedede}</style><path class="st0" d="M7.9 5.9h45v9h-47v-.5c.2-.8.3-1.6.5-2.5.3-1.4.9-4.6 1.5-6m-1.1-2l-.3.3C5.7 5.4 5 8.5 4.4 11.5l-.6 2.7v2.7h51v-13h-48zM80 27.2v.9c-.9 0-1.5-.1-1.8-.3.3-.2 1-.4 1.8-.6m2-2.2s-6 0-6 3c0 1.8 2.8 2.1 4.5 2.1.8 0 1.5-.1 1.5-.1v-5zM58.9 5.9h7.9c3.7 0 10.5 6.4 12.9 15.3-1.9-.6-3.9-1.3-6-2.2-4.5-2-9.7-4-14.8-4.2V5.9m-2-2v13h1.2c4.7 0 9.8 1.9 14.8 4 2.8 1.2 5.5 2.1 8 2.8l1 .3v-2.1c-2.2-10.4-10.1-18-15.1-18h-9.9z"/><path transform="rotate(-53.117 67.372 11.923)" class="st0" d="M64.9 10.9h5v2h-5z"/><path class="st0" d="M88.1 9.7c-1.9-2.9-4.3-6-8.4-6h-4.2C72.7 1.3 69.8 0 67.3 0H6.5C2.8 0 1.7 5.3.6 10.4c-.2 1-.4 2-.6 2.9v15.1c0 3.4 2.7 6.3 6.1 6.5 0 0 .4 0 .9.1h.8c1 1.8 3 3 5.2 3s4.1-1.2 5.2-3h3.6c1 1.8 3 3 5.2 3s4.1-1.2 5.2-3h26.6c1 1.8 3 3 5.2 3s4.1-1.2 5.2-3H73l6.3-.1c3.6 0 6.5-2.9 6.5-6.5v-6.8c-1-4.9-3.2-9.7-6.3-13.7h.2c1.6 0 2.8 1.1 4.8 4.1.4.6 1.1 1 1.9 1 .4 0 .8-.1 1.1-.3 1-.7 1.3-2 .6-3zM13 36c-2.2 0-4-1.8-4-4s1.8-4 4-4 4 1.8 4 4-1.8 4-4 4zm14 0c-2.2 0-4-1.8-4-4s1.8-4 4-4 4 1.8 4 4-1.8 4-4 4zm37 0c-2.2 0-4-1.8-4-4s1.8-4 4-4 4 1.8 4 4-1.8 4-4 4zm22.4-25h-.2c-2-3.1-3.8-5-6.4-5h-.2c-.8 0-1.5.4-1.8 1.1-.3.7-.3 1.5.2 2.1 2.8 3.7 4.9 8.2 5.9 12.8v6.5c0 2.5-2 4.5-4.5 4.5h-9.5c.1-.3.1-.7.1-1 0-3.3-2.7-6-6-6s-6 2.7-6 6c0 .3 0 .7.1 1H32.9c.1-.3.1-.7.1-1 0-3.3-2.7-6-6-6s-6 2.7-6 6c0 .3 0 .7.1 1h-2.2c.1-.3.1-.7.1-1 0-3.3-2.7-6-6-6s-6 2.7-6 6c0 .3 0 .7.1 1H7c-.2 0-.7-.1-.9-.1-2.3-.2-4.1-2.1-4.1-4.4V13.6c.2-.9.4-1.8.6-2.8C3.4 6.9 4.4 2 6.5 2h60.9c2 0 4.5 1.1 6.9 3.2.4.3.8.5 1.3.5h4.2c2.8 0 4.7 2 6.7 5.1 0 .1 0 .2-.1.2z"/></svg>