<svg version="1" id="Layer_1" xmlns="http://www.w3.org/2000/svg" viewBox="0 0 37 30"><style>.st0{fill:#00ae68}.st1,.st2,.st3{fill:none;stroke:#555;stroke-width:2;stroke-miterlimit:10}.st2,.st3{stroke-linejoin:round}.st3{stroke-linecap:round}</style><path class="st0" d="M3 13h20v14H3z"/><path class="st1" d="M9 11H3c-1.1 0-2 .9-2 2v14c0 1.1.9 2 2 2h20c1.1 0 2-.9 2-2V13c0-1.1-.9-2-2-2h-7.3"/><path class="st2" d="M5 16h5v5H5z"/><path class="st3" d="M5 25h2M11 25h2M17 25h2M25 20l7-7 4-4-8-8-4 4 8 8M22 11l-2.2-2.2c-.9-.9-2.5-.7-3.1.4l-1 1.8-1.3 2.1c-.5 1-1.6 1.6-2.6 1.6-.5 0-1-.1-1.5-.4-1.2-.6-1.7-2-1.3-3.3 0-.1.1-.3.1-.4l3.6-7.8c.7-1.5 2.6-2.2 4.1-1.4L24 5"/></svg>