<svg version="1" id="Layer_1" xmlns="http://www.w3.org/2000/svg" viewBox="0 0 34 34.9"><style>.st0{stroke-linejoin:round;stroke-miterlimit:10}.st0,.st1,.st2{fill:none;stroke:#ff8c00;stroke-width:2;stroke-linecap:round}.st1{stroke-miterlimit:10}.st2{stroke-linejoin:round}</style><path class="st0" d="M1 5.9h5l4 19h19"/><path class="st0" d="M6.6 8.9H33l-2.5 12"/><path class="st1" d="M30.5 20.9H9.2"/><circle class="st0" cx="13.5" cy="31.4" r="2.5"/><circle class="st0" cx="24.5" cy="31.4" r="2.5"/><path class="st2" d="M10.4 8.9h11.4l-2.2-7.4c-.1-.3-.4-.5-.8-.4L9.4 3.9c-.3.1-.5.4-.4.7l1.4 4.3z"/><path class="st2" d="M31.4 4.6H20.5l1.3 4.2H32V5.2c0-.3-.3-.6-.6-.6zM20.5 4.6h9l-.4-3c0-.3-.4-.6-.8-.6l-8.6 1 .8 2.6z"/></svg>