<svg version="1" id="Layer_1" xmlns="http://www.w3.org/2000/svg" viewBox="0 0 98.3 76.8"><style>.st0{fill:#dedede}</style><path class="st0" d="M95.5 53.7c-5.7-4.6-11.9-8.7-18.5-12v-5.3c.7-1.3 1.3-2.7 1.6-4.2 1.1-.7 1.9-2.4 2.7-5.2.9-3 .8-5-.2-6.2-.2-.2-.4-.4-.7-.6 0-.2.1-.4.1-.6 1-5.6.5-9.8-1.5-12.3-.8-1-1.8-1.7-3-2.1-1-1.4-2.3-2.5-3.8-3.4C69.7.3 66.8-.3 63.9 0c-1.2.1-2.3.3-3.4.6-1.3.4-2.5 1.1-3.6 1.8-1.3.8-2.6 1.9-3.7 3-2 1.9-3.3 4.4-4 7.1-.5 2.3-.5 4.6 0 6.8v.1c0 .2.1.4.1.6-.2.2-.5.4-.7.6-1 1.2-1.1 3.2-.2 6.2.8 2.8 1.6 4.5 2.7 5.2.3 1.5.9 2.9 1.6 4.3v5.2c-6.6 3.3-12.8 7.4-18.5 12-1.8 1.5-2.8 3.7-2.8 6.1v15.5c0 .8.7 1.5 1.5 1.5h63.8c.8 0 1.5-.7 1.5-1.5V59.8c.1-2.4-.9-4.6-2.7-6.1zm-.2 20H34.5v-14c0-1.4.6-2.8 1.7-3.7 5.7-4.6 11.9-8.6 18.5-11.8.7-.4 1.2-1.1 1.2-1.9v-6.2c0-.3-.1-.5-.2-.8-.9-1.3-1.5-2.8-1.7-4.3-.1-.6-.6-1.1-1.2-1.2-.2-.2-.7-.9-1.5-3.5-.7-2.4-.5-3.2-.4-3.5h.1c.5.1 1-.2 1.3-.6.3-.4.4-.9.2-1.4-.2-.5-.3-1.1-.4-1.6v-.1c-.4-1.9-.4-3.8 0-5.6.5-2.2 1.7-4.2 3.3-5.7.9-1 2-1.9 3.2-2.6.9-.6 1.9-1.1 2.9-1.5.8-.3 1.7-.4 2.6-.5 2.3-.3 4.6.2 6.7 1.4 1.2.7 2.3 1.6 3 2.8.2.4.7.7 1.2.7.7.2 1.4.6 1.8 1.2 1 1.3 1.9 4 .9 9.8-.1.6-.3 1.1-.5 1.7-.2.5-.1 1 .2 1.4.3.4.8.6 1.3.6h.1c.1.2.3 1-.4 3.5-.7 2.6-1.3 3.3-1.5 3.5-.6.1-1.1.6-1.2 1.2-.3 1.6-.8 3-1.6 4.4-.1.2-.1.4-.1.7v6.3c0 .8.5 1.5 1.2 1.9 6.5 3.3 12.7 7.2 18.4 11.8 1.1.9 1.8 2.3 1.7 3.7v13.9zm-67.1 1.6c0 .8-.7 1.5-1.5 1.5H1.5c-.8 0-1.5-.7-1.5-1.5v-15c.2-3 2-5.6 4.7-6.9 1.8-.9 3.7-1.6 5.7-2.2h.1l.6-.2c2.8-.7 5.6-1.7 8.2-2.9l.1-.1c.2-.1.2-.3.2-.5v-2.1c-9-.3-12-4.5-12.1-4.6-.5-.7-.3-1.6.4-2.1.2-.2.5-.3.8-.3 1-.1 3.9-2.7 3.6-13-.4-15.3 6.9-18.1 9.7-19.1 6.6-2.5 10.6.2 12 1.5 2.5-.2 5 .7 6.8 2.5 3.2 3.3 4.6 9.6 3.8 17.9-.9 8.9 3.4 10.4 3.6 10.4.5.2.9.6 1 1.1.1.5 0 1-.4 1.4-4.3 4.4-13 4.2-13.3 4.2-.8 0-1.5-.7-1.5-1.5s.7-1.5 1.5-1.5h.1c.1 0 5.8.1 9.5-2.1-1.9-1.6-4.3-5.1-3.5-12.3.7-7.2-.3-12.9-2.9-15.5-1.4-1.3-3.2-1.9-5.1-1.6-.5 0-1-.1-1.3-.5-.1-.1-3.1-3.5-9.1-1.2-2.5 1-8.1 3.1-7.8 16.3.2 7-1 11.9-3.4 14.4l-.5.5c1.6 1 4.6 2.2 9.7 2.2.8 0 1.5.7 1.5 1.5v3.6c0 1.2-.6 2.3-1.6 3l-.3.2c-2.9 1.3-5.8 2.4-8.9 3.2h-.3l-.4.1c-1.8.5-3.5 1.2-5.2 2-1.7.8-2.8 2.4-3 4.2v13.4h23.6c.8 0 1.5.6 1.6 1.4v.2z"/></svg>