<svg version="1" id="Layer_1" xmlns="http://www.w3.org/2000/svg" viewBox="0 0 37 36"><style>.st0{fill:#00ae68}.st1{fill:none;stroke:#555;stroke-width:2;stroke-linecap:round;stroke-linejoin:round;stroke-miterlimit:10}</style><path class="st0" d="M5 5h16v22H5z"/><path class="st1" d="M11 22V12h2.5c1.4 0 2.5 1.1 2.5 2.5S14.9 17 13.5 17H9M9 20h4"/><path class="st1" d="M23 35H3c-1.1 0-2-.9-2-2V3c0-1.1.9-2 2-2h20c1.1 0 2 .9 2 2v30c0 1.1-.9 2-2 2z"/><path class="st1" d="M19 27H7c-1.1 0-2-.9-2-2V7c0-1.1.9-2 2-2h12c1.1 0 2 .9 2 2v18c0 1.1-.9 2-2 2zM11 31h4M30 10h6M32 13l-3-3 3-3"/><g><path class="st1" d="M35 23h-6M33 26l3-3-3-3"/></g></svg>